# xmcd CD database file
#
# Track frame offsets:
#	150
#	20631
#	48485
#	76228
#	103055
#	129003
#	157277
#	187453
#	224192
#	243941
#	263631
#	282691
#	312520
#
# Disc length: 4487 seconds
#
# Revision: 0
# Processed by: cddbd v1.5.2PL0 Copyright (c) Steve Scherf et al.
# Submitted via: ACXtractor (MTCDDB.DLL V2003.07.15)
#
DISCID=cb11850d
DTITLE=M24 Bluez Band - Don't You Know
DYEAR=2017
DGENRE=Blues
TTITLE0=Don't You Know
TTITLE1=Rain Or Shine
TTITLE2=Simple Man
TTITLE3=Amazing Grace
TTITLE4=Going Home
TTITLE5=Don't Let The Devil Ride
TTITLE6=Everybody Wants To Go To Heaven
TTITLE7=Christian Woman
TTITLE8=Don't Let Nobody Drag Your Spirit Down
TTITLE9=Oh Lord I Want You To Help Me
TTITLE10=Trouble In My Way
TTITLE11=Twenty-Five To Life
TTITLE12=I Believe
EXTD=ID3G:   0 YEAR: 2017
EXTT0=
EXTT1=
EXTT2=
EXTT3=
EXTT4=
EXTT5=
EXTT6=
EXTT7=
EXTT8=
EXTT9=
EXTT10=
EXTT11=
EXTT12=
PLAYORDER=
